<?xml version="1.0" encoding="UTF-8" standalone="no"?>
<svg
   xmlns:dc="http://purl.org/dc/elements/1.1/"
   xmlns:cc="http://creativecommons.org/ns#"
   xmlns:rdf="http://www.w3.org/1999/02/22-rdf-syntax-ns#"
   xmlns:svg="http://www.w3.org/2000/svg"
   xmlns="http://www.w3.org/2000/svg"
   xmlns:sodipodi="http://sodipodi.sourceforge.net/DTD/sodipodi-0.dtd"
   xmlns:inkscape="http://www.inkscape.org/namespaces/inkscape"
   width="170.20518mm"
   height="135.3958mm"
   viewBox="0 0 170.20518 135.3958"
   version="1.1"
   id="svg8"
   sodipodi:docname="conso_02_p1_01.svg"
   inkscape:version="1.0.1 (c497b03c, 2020-09-10)">
  <sodipodi:namedview
     pagecolor="#ffffff"
     bordercolor="#666666"
     borderopacity="1"
     objecttolerance="10"
     gridtolerance="10"
     guidetolerance="10"
     inkscape:pageopacity="0"
     inkscape:pageshadow="2"
     inkscape:window-width="1680"
     inkscape:window-height="997"
     id="namedview1575"
     showgrid="false"
     fit-margin-top="5"
     fit-margin-right="5"
     fit-margin-bottom="5"
     fit-margin-left="5"
     inkscape:zoom="0.70160866"
     inkscape:cx="314.93675"
     inkscape:cy="303.70428"
     inkscape:window-x="1792"
     inkscape:window-y="25"
     inkscape:window-maximized="0"
     inkscape:current-layer="svg8" />
  <defs
     id="defs2">
    <marker
       style="overflow:visible"
       id="marker1225"
       refX="0"
       refY="0"
       orient="auto">
      <path
         transform="matrix(-0.8,0,0,-0.8,-10,0)"
         style="fill:#000000;fill-opacity:1;fill-rule:evenodd;stroke:#000000;stroke-width:1pt;stroke-opacity:1"
         d="M 0,0 5,-5 -12.5,0 5,5 Z"
         id="path1223" />
    </marker>
    <marker
       style="overflow:visible"
       id="marker1185"
       refX="0"
       refY="0"
       orient="auto">
      <path
         transform="matrix(0.8,0,0,0.8,10,0)"
         style="fill:#000000;fill-opacity:1;fill-rule:evenodd;stroke:#000000;stroke-width:1pt;stroke-opacity:1"
         d="M 0,0 5,-5 -12.5,0 5,5 Z"
         id="path1183" />
    </marker>
    <marker
       style="overflow:visible"
       id="Arrow1Lstart"
       refX="0"
       refY="0"
       orient="auto">
      <path
         transform="matrix(0.8,0,0,0.8,10,0)"
         style="fill:#000000;fill-opacity:1;fill-rule:evenodd;stroke:#000000;stroke-width:1pt;stroke-opacity:1"
         d="M 0,0 5,-5 -12.5,0 5,5 Z"
         id="path881" />
    </marker>
    <marker
       style="overflow:visible"
       id="Arrow1Lend"
       refX="0"
       refY="0"
       orient="auto">
      <path
         transform="matrix(-0.8,0,0,-0.8,-10,0)"
         style="fill:#000000;fill-opacity:1;fill-rule:evenodd;stroke:#000000;stroke-width:1pt;stroke-opacity:1"
         d="M 0,0 5,-5 -12.5,0 5,5 Z"
         id="path884" />
    </marker>
  </defs>
  <metadata
     id="metadata5">
    <rdf:RDF>
      <cc:Work
         rdf:about="">
        <dc:format>image/svg+xml</dc:format>
        <dc:type
           rdf:resource="http://purl.org/dc/dcmitype/StillImage" />
        <dc:title></dc:title>
      </cc:Work>
    </rdf:RDF>
  </metadata>
  <g
     id="layer1"
     transform="translate(-21.672985,-68.144909)">
    <path
       style="fill:#ffccaa;stroke:none;stroke-width:0.264583px;stroke-linecap:butt;stroke-linejoin:miter;stroke-opacity:1"
       d="m 27.178703,73.677409 c -0.784341,5.700863 -0.526616,11.386566 -0.09719,17.112252 0.288618,3.848214 0.53322,7.578619 1.553859,11.320959 1.154456,4.23301 1.273489,3.60683 2.885736,8.21325 1.483834,4.23952 2.912409,8.68293 3.773651,13.09679 0.880216,4.5111 0.828411,6.63397 1.997819,11.09898 1.139423,4.35053 4.345191,12.22667 7.103345,15.76056 1.353582,1.73427 2.970207,3.24623 4.439595,4.88355 1.120444,1.2485 2.124207,2.60705 3.329694,3.77365 1.720138,1.66465 5.222446,4.06045 7.103348,5.54949 3.416683,2.70488 6.897891,5.37339 10.211061,8.21325 1.306278,1.11966 0.498224,0.57945 1.553856,1.77583 1.558139,1.7659 3.338232,3.32842 4.883552,5.10554 1.951249,2.24393 3.426124,4.98275 5.77147,6.88136 0.909325,0.73613 1.955131,1.28879 2.885736,1.99782 0.625653,0.47669 1.103958,1.14489 1.775836,1.55386 0.08558,0.0521 5.854086,2.7271 6.21543,2.88573 3.603869,1.58219 7.764179,3.72151 11.764919,4.4396 1.76151,0.31616 3.55238,0.43835 5.32751,0.66593 1.11063,0.14239 2.2116,0.38353 3.32969,0.44396 5.6701,0.30649 4.94932,-0.13154 10.21106,-1.77583 0.87359,-0.273 1.82963,-0.28924 2.66376,-0.66594 1.48051,-0.66862 2.74951,-1.74636 4.21761,-2.44178 8.17724,-3.87343 0.327,0.82096 8.21325,-3.32969 5.43493,-2.86049 3.1851,-1.96475 7.5473,-5.10553 3.02333,-2.17679 6.18712,-4.20295 8.43523,-7.32533 2.31692,-3.21795 2.59052,-5.66985 3.99563,-9.32314 0.58255,-1.51463 1.40536,-2.92882 1.99782,-4.4396 9.57572,-24.41807 -2.60474,6.09146 3.77365,-11.54294 0.71052,-1.96436 1.7686,-3.79399 2.44178,-5.77147 0.908,-2.66725 1.35758,-5.46937 1.99782,-8.21324 0.75303,-3.2273 1.6449,-6.38668 2.66375,-9.54513 0.40952,-1.26951 0.96542,-2.49104 1.33188,-3.77365 0.81842,-2.86446 1.42246,-5.7868 2.21979,-8.6572 0.94632,-3.40674 2.06347,-6.91887 3.3297,-10.21106 0.9195,-2.39072 1.46923,-4.96345 2.44177,-7.325333 0.31499,-0.764958 0.79172,-1.456163 1.1099,-2.219796 0.23468,-0.563229 0.22493,-1.206344 0.44396,-1.775838 1.16126,-3.019269 2.19323,-6.070592 3.3297,-9.101164 0.46287,-1.234334 0.622,-2.553907 1.10989,-3.773652 0.93442,-2.336038 0,-4.530193 0,-6.881368 0,-0.269531 0.35135,-1.214408 0.22198,-1.331878 -0.13944,-0.126627 -0.34049,-0.161202 -0.51073,-0.241802"
       id="path1333" />
    <path
       style="fill:#ff6600;stroke:#ff6600;stroke-width:1.065;stroke-linecap:butt;stroke-linejoin:miter;stroke-miterlimit:4;stroke-dasharray:none;stroke-opacity:1"
       d="M 27.178703,73.677409 H 186.17412"
       id="path843" />
    <g
       id="g859"
       transform="rotate(45,106.67641,121.94472)"
       style="stroke:#ff0000;stroke-width:1.1;stroke-miterlimit:4;stroke-dasharray:none">
      <path
         style="fill:none;stroke:#ff0000;stroke-width:1.1;stroke-linecap:butt;stroke-linejoin:miter;stroke-miterlimit:4;stroke-dasharray:none;stroke-opacity:1"
         d="m 106.67641,118.03825 v 7.81295"
         id="path849" />
      <path
         style="fill:none;stroke:#ff0000;stroke-width:1.1;stroke-linecap:butt;stroke-linejoin:miter;stroke-miterlimit:4;stroke-dasharray:none;stroke-opacity:1"
         d="m 110.58289,121.94473 h -7.81295"
         id="path855" />
    </g>
    <g
       id="g865"
       transform="rotate(45,60.629145,141.01812)"
       style="stroke:#0000ff;stroke-width:1.1;stroke-miterlimit:4;stroke-dasharray:none">
      <path
         style="fill:none;stroke:#0000ff;stroke-width:1.1;stroke-linecap:butt;stroke-linejoin:miter;stroke-miterlimit:4;stroke-dasharray:none;stroke-opacity:1"
         d="m 106.67641,118.03825 v 7.81295"
         id="path861" />
      <path
         style="fill:none;stroke:#0000ff;stroke-width:1.1;stroke-linecap:butt;stroke-linejoin:miter;stroke-miterlimit:4;stroke-dasharray:none;stroke-opacity:1"
         d="m 110.58289,121.94473 h -7.81295"
         id="path863" />
    </g>
    <path
       style="fill:none;stroke:#000000;stroke-width:0.264583px;stroke-linecap:butt;stroke-linejoin:miter;stroke-opacity:1"
       d="M 101.38474,121.94472 H 71.347752"
       id="path871" />
    <path
       style="fill:none;stroke:#000000;stroke-width:0.264583px;stroke-linecap:butt;stroke-linejoin:miter;stroke-opacity:1"
       d="M 142.00507,160.09153 H 111.96808"
       id="path873" />
    <path
       style="fill:none;stroke:#000000;stroke-width:0.264583px;stroke-linecap:butt;stroke-linejoin:miter;stroke-opacity:1;marker-start:url(#marker1185);marker-end:url(#marker1225)"
       d="M 76.639419,73.677409 V 121.94472"
       id="path877" />
    <path
       style="fill:none;stroke:#000000;stroke-width:0.265;stroke-linecap:butt;stroke-linejoin:miter;stroke-miterlimit:4;stroke-dasharray:none;stroke-opacity:1;marker-start:url(#Arrow1Lstart);marker-end:url(#Arrow1Lend)"
       d="M 136.7134,73.677409 V 160.09153"
       id="path879" />
    <text
       xml:space="preserve"
       style="font-weight:bold;font-size:8.62952px;line-height:1.25;font-family:Montserrat;-inkscape-font-specification:'Montserrat Bold';stroke-width:0.215738"
       x="59.466278"
       y="100.08516"
       id="text1271"><tspan
         id="tspan1269"
         x="59.466278"
         y="100.08516"
         style="font-style:normal;font-variant:normal;font-weight:normal;font-stretch:normal;font-family:sans-serif;-inkscape-font-specification:sans-serif;stroke-width:0.215738">H<tspan
   style="font-style:normal;font-variant:normal;font-weight:normal;font-stretch:normal;font-size:5.60919px;font-family:sans-serif;-inkscape-font-specification:sans-serif;baseline-shift:sub;stroke-width:0.215738"
   id="tspan1273">A</tspan></tspan></text>
    <text
       xml:space="preserve"
       style="font-weight:bold;font-size:8.62952px;line-height:1.25;font-family:Montserrat;-inkscape-font-specification:'Montserrat Bold';stroke-width:0.215738"
       x="142.01631"
       y="119.15857"
       id="text1303"><tspan
         id="tspan1301"
         x="142.01631"
         y="119.15857"
         style="font-style:normal;font-variant:normal;font-weight:normal;font-stretch:normal;font-family:sans-serif;-inkscape-font-specification:sans-serif;stroke-width:0.215738">H<tspan
   style="font-style:normal;font-variant:normal;font-weight:normal;font-stretch:normal;font-size:5.60919px;font-family:sans-serif;-inkscape-font-specification:sans-serif;baseline-shift:sub;stroke-width:0.215738"
   id="tspan1299">B</tspan></tspan></text>
    <text
       xml:space="preserve"
       style="font-weight:bold;font-size:8.62952px;line-height:1.25;font-family:Montserrat;-inkscape-font-specification:'Montserrat Bold';fill:#ff0000;stroke:#ff0000;stroke-width:0.215738"
       x="111.40951"
       y="130.23854"
       id="text1321"><tspan
         id="tspan1319"
         x="111.40951"
         y="130.23854"
         style="font-style:normal;font-variant:normal;font-weight:normal;font-stretch:normal;font-family:sans-serif;-inkscape-font-specification:sans-serif;fill:#ff0000;stroke:#ff0000;stroke-width:0.215738">A<tspan
   style="font-style:normal;font-variant:normal;font-weight:normal;font-stretch:normal;font-size:5.60919px;font-family:sans-serif;-inkscape-font-specification:sans-serif;baseline-shift:sub;fill:#ff0000;stroke:#ff0000;stroke-width:0.215738"
   id="tspan1317" /></tspan></text>
    <text
       xml:space="preserve"
       style="font-weight:bold;font-size:8.62952px;line-height:1.25;font-family:Montserrat;-inkscape-font-specification:'Montserrat Bold';fill:#0000ff;stroke:#0000ff;stroke-width:0.215738"
       x="96.980835"
       y="168.52025"
       id="text1327"><tspan
         x="96.980835"
         y="168.52025"
         style="font-style:normal;font-variant:normal;font-weight:normal;font-stretch:normal;font-family:sans-serif;-inkscape-font-specification:sans-serif;fill:#0000ff;stroke:#0000ff;stroke-width:0.215738"
         id="tspan1329">B</tspan></text>
  </g>
</svg>
