<?xml version="1.0" encoding="utf-8" standalone="no"?>
<!DOCTYPE svg PUBLIC "-//W3C//DTD SVG 1.1//EN"
  "http://www.w3.org/Graphics/SVG/1.1/DTD/svg11.dtd">
<!-- Created with matplotlib (https://matplotlib.org/) -->
<svg height="288pt" version="1.1" viewBox="0 0 432 288" width="432pt" xmlns="http://www.w3.org/2000/svg" xmlns:xlink="http://www.w3.org/1999/xlink">
 <defs>
  <style type="text/css">
*{stroke-linecap:butt;stroke-linejoin:round;}
  </style>
 </defs>
 <g id="figure_1">
  <g id="patch_1">
   <path d="M 0 288 
L 432 288 
L 432 0 
L 0 0 
z
" style="fill:#ffffff;"/>
  </g>
  <g id="axes_1">
   <g id="patch_2">
    <path d="M 54 252 
L 388.8 252 
L 388.8 34.56 
L 54 34.56 
z
" style="fill:#ffffff;"/>
   </g>
   <g id="matplotlib.axis_1">
    <g id="xtick_1">
     <g id="line2d_1">
      <path clip-path="url(#p5b26229dfa)" d="M 54 252 
L 54 34.56 
" style="fill:none;stroke:#b0b0b0;stroke-linecap:square;stroke-width:0.8;"/>
     </g>
     <g id="line2d_2">
      <defs>
       <path d="M 0 0 
L 0 3.5 
" id="m955d5e704e" style="stroke:#000000;stroke-width:0.8;"/>
      </defs>
      <g>
       <use style="stroke:#000000;stroke-width:0.8;" x="54" xlink:href="#m955d5e704e" y="252"/>
      </g>
     </g>
     <g id="text_1">
      <!-- 0.0 -->
      <defs>
       <path d="M 31.78125 66.40625 
Q 24.171875 66.40625 20.328125 58.90625 
Q 16.5 51.421875 16.5 36.375 
Q 16.5 21.390625 20.328125 13.890625 
Q 24.171875 6.390625 31.78125 6.390625 
Q 39.453125 6.390625 43.28125 13.890625 
Q 47.125 21.390625 47.125 36.375 
Q 47.125 51.421875 43.28125 58.90625 
Q 39.453125 66.40625 31.78125 66.40625 
z
M 31.78125 74.21875 
Q 44.046875 74.21875 50.515625 64.515625 
Q 56.984375 54.828125 56.984375 36.375 
Q 56.984375 17.96875 50.515625 8.265625 
Q 44.046875 -1.421875 31.78125 -1.421875 
Q 19.53125 -1.421875 13.0625 8.265625 
Q 6.59375 17.96875 6.59375 36.375 
Q 6.59375 54.828125 13.0625 64.515625 
Q 19.53125 74.21875 31.78125 74.21875 
z
" id="DejaVuSans-48"/>
       <path d="M 10.6875 12.40625 
L 21 12.40625 
L 21 0 
L 10.6875 0 
z
" id="DejaVuSans-46"/>
      </defs>
      <g transform="translate(46.048437 266.598437)scale(0.1 -0.1)">
       <use xlink:href="#DejaVuSans-48"/>
       <use x="63.623047" xlink:href="#DejaVuSans-46"/>
       <use x="95.410156" xlink:href="#DejaVuSans-48"/>
      </g>
     </g>
    </g>
    <g id="xtick_2">
     <g id="line2d_3">
      <path clip-path="url(#p5b26229dfa)" d="M 120.96 252 
L 120.96 34.56 
" style="fill:none;stroke:#b0b0b0;stroke-linecap:square;stroke-width:0.8;"/>
     </g>
     <g id="line2d_4">
      <g>
       <use style="stroke:#000000;stroke-width:0.8;" x="120.96" xlink:href="#m955d5e704e" y="252"/>
      </g>
     </g>
     <g id="text_2">
      <!-- 0.2 -->
      <defs>
       <path d="M 19.1875 8.296875 
L 53.609375 8.296875 
L 53.609375 0 
L 7.328125 0 
L 7.328125 8.296875 
Q 12.9375 14.109375 22.625 23.890625 
Q 32.328125 33.6875 34.8125 36.53125 
Q 39.546875 41.84375 41.421875 45.53125 
Q 43.3125 49.21875 43.3125 52.78125 
Q 43.3125 58.59375 39.234375 62.25 
Q 35.15625 65.921875 28.609375 65.921875 
Q 23.96875 65.921875 18.8125 64.3125 
Q 13.671875 62.703125 7.8125 59.421875 
L 7.8125 69.390625 
Q 13.765625 71.78125 18.9375 73 
Q 24.125 74.21875 28.421875 74.21875 
Q 39.75 74.21875 46.484375 68.546875 
Q 53.21875 62.890625 53.21875 53.421875 
Q 53.21875 48.921875 51.53125 44.890625 
Q 49.859375 40.875 45.40625 35.40625 
Q 44.1875 33.984375 37.640625 27.21875 
Q 31.109375 20.453125 19.1875 8.296875 
z
" id="DejaVuSans-50"/>
      </defs>
      <g transform="translate(113.008438 266.598437)scale(0.1 -0.1)">
       <use xlink:href="#DejaVuSans-48"/>
       <use x="63.623047" xlink:href="#DejaVuSans-46"/>
       <use x="95.410156" xlink:href="#DejaVuSans-50"/>
      </g>
     </g>
    </g>
    <g id="xtick_3">
     <g id="line2d_5">
      <path clip-path="url(#p5b26229dfa)" d="M 187.92 252 
L 187.92 34.56 
" style="fill:none;stroke:#b0b0b0;stroke-linecap:square;stroke-width:0.8;"/>
     </g>
     <g id="line2d_6">
      <g>
       <use style="stroke:#000000;stroke-width:0.8;" x="187.92" xlink:href="#m955d5e704e" y="252"/>
      </g>
     </g>
     <g id="text_3">
      <!-- 0.4 -->
      <defs>
       <path d="M 37.796875 64.3125 
L 12.890625 25.390625 
L 37.796875 25.390625 
z
M 35.203125 72.90625 
L 47.609375 72.90625 
L 47.609375 25.390625 
L 58.015625 25.390625 
L 58.015625 17.1875 
L 47.609375 17.1875 
L 47.609375 0 
L 37.796875 0 
L 37.796875 17.1875 
L 4.890625 17.1875 
L 4.890625 26.703125 
z
" id="DejaVuSans-52"/>
      </defs>
      <g transform="translate(179.968438 266.598437)scale(0.1 -0.1)">
       <use xlink:href="#DejaVuSans-48"/>
       <use x="63.623047" xlink:href="#DejaVuSans-46"/>
       <use x="95.410156" xlink:href="#DejaVuSans-52"/>
      </g>
     </g>
    </g>
    <g id="xtick_4">
     <g id="line2d_7">
      <path clip-path="url(#p5b26229dfa)" d="M 254.88 252 
L 254.88 34.56 
" style="fill:none;stroke:#b0b0b0;stroke-linecap:square;stroke-width:0.8;"/>
     </g>
     <g id="line2d_8">
      <g>
       <use style="stroke:#000000;stroke-width:0.8;" x="254.88" xlink:href="#m955d5e704e" y="252"/>
      </g>
     </g>
     <g id="text_4">
      <!-- 0.6 -->
      <defs>
       <path d="M 33.015625 40.375 
Q 26.375 40.375 22.484375 35.828125 
Q 18.609375 31.296875 18.609375 23.390625 
Q 18.609375 15.53125 22.484375 10.953125 
Q 26.375 6.390625 33.015625 6.390625 
Q 39.65625 6.390625 43.53125 10.953125 
Q 47.40625 15.53125 47.40625 23.390625 
Q 47.40625 31.296875 43.53125 35.828125 
Q 39.65625 40.375 33.015625 40.375 
z
M 52.59375 71.296875 
L 52.59375 62.3125 
Q 48.875 64.0625 45.09375 64.984375 
Q 41.3125 65.921875 37.59375 65.921875 
Q 27.828125 65.921875 22.671875 59.328125 
Q 17.53125 52.734375 16.796875 39.40625 
Q 19.671875 43.65625 24.015625 45.921875 
Q 28.375 48.1875 33.59375 48.1875 
Q 44.578125 48.1875 50.953125 41.515625 
Q 57.328125 34.859375 57.328125 23.390625 
Q 57.328125 12.15625 50.6875 5.359375 
Q 44.046875 -1.421875 33.015625 -1.421875 
Q 20.359375 -1.421875 13.671875 8.265625 
Q 6.984375 17.96875 6.984375 36.375 
Q 6.984375 53.65625 15.1875 63.9375 
Q 23.390625 74.21875 37.203125 74.21875 
Q 40.921875 74.21875 44.703125 73.484375 
Q 48.484375 72.75 52.59375 71.296875 
z
" id="DejaVuSans-54"/>
      </defs>
      <g transform="translate(246.928438 266.598437)scale(0.1 -0.1)">
       <use xlink:href="#DejaVuSans-48"/>
       <use x="63.623047" xlink:href="#DejaVuSans-46"/>
       <use x="95.410156" xlink:href="#DejaVuSans-54"/>
      </g>
     </g>
    </g>
    <g id="xtick_5">
     <g id="line2d_9">
      <path clip-path="url(#p5b26229dfa)" d="M 321.84 252 
L 321.84 34.56 
" style="fill:none;stroke:#b0b0b0;stroke-linecap:square;stroke-width:0.8;"/>
     </g>
     <g id="line2d_10">
      <g>
       <use style="stroke:#000000;stroke-width:0.8;" x="321.84" xlink:href="#m955d5e704e" y="252"/>
      </g>
     </g>
     <g id="text_5">
      <!-- 0.8 -->
      <defs>
       <path d="M 31.78125 34.625 
Q 24.75 34.625 20.71875 30.859375 
Q 16.703125 27.09375 16.703125 20.515625 
Q 16.703125 13.921875 20.71875 10.15625 
Q 24.75 6.390625 31.78125 6.390625 
Q 38.8125 6.390625 42.859375 10.171875 
Q 46.921875 13.96875 46.921875 20.515625 
Q 46.921875 27.09375 42.890625 30.859375 
Q 38.875 34.625 31.78125 34.625 
z
M 21.921875 38.8125 
Q 15.578125 40.375 12.03125 44.71875 
Q 8.5 49.078125 8.5 55.328125 
Q 8.5 64.0625 14.71875 69.140625 
Q 20.953125 74.21875 31.78125 74.21875 
Q 42.671875 74.21875 48.875 69.140625 
Q 55.078125 64.0625 55.078125 55.328125 
Q 55.078125 49.078125 51.53125 44.71875 
Q 48 40.375 41.703125 38.8125 
Q 48.828125 37.15625 52.796875 32.3125 
Q 56.78125 27.484375 56.78125 20.515625 
Q 56.78125 9.90625 50.3125 4.234375 
Q 43.84375 -1.421875 31.78125 -1.421875 
Q 19.734375 -1.421875 13.25 4.234375 
Q 6.78125 9.90625 6.78125 20.515625 
Q 6.78125 27.484375 10.78125 32.3125 
Q 14.796875 37.15625 21.921875 38.8125 
z
M 18.3125 54.390625 
Q 18.3125 48.734375 21.84375 45.5625 
Q 25.390625 42.390625 31.78125 42.390625 
Q 38.140625 42.390625 41.71875 45.5625 
Q 45.3125 48.734375 45.3125 54.390625 
Q 45.3125 60.0625 41.71875 63.234375 
Q 38.140625 66.40625 31.78125 66.40625 
Q 25.390625 66.40625 21.84375 63.234375 
Q 18.3125 60.0625 18.3125 54.390625 
z
" id="DejaVuSans-56"/>
      </defs>
      <g transform="translate(313.888438 266.598437)scale(0.1 -0.1)">
       <use xlink:href="#DejaVuSans-48"/>
       <use x="63.623047" xlink:href="#DejaVuSans-46"/>
       <use x="95.410156" xlink:href="#DejaVuSans-56"/>
      </g>
     </g>
    </g>
    <g id="xtick_6">
     <g id="line2d_11">
      <path clip-path="url(#p5b26229dfa)" d="M 388.8 252 
L 388.8 34.56 
" style="fill:none;stroke:#b0b0b0;stroke-linecap:square;stroke-width:0.8;"/>
     </g>
     <g id="line2d_12">
      <g>
       <use style="stroke:#000000;stroke-width:0.8;" x="388.8" xlink:href="#m955d5e704e" y="252"/>
      </g>
     </g>
     <g id="text_6">
      <!-- 1.0 -->
      <defs>
       <path d="M 12.40625 8.296875 
L 28.515625 8.296875 
L 28.515625 63.921875 
L 10.984375 60.40625 
L 10.984375 69.390625 
L 28.421875 72.90625 
L 38.28125 72.90625 
L 38.28125 8.296875 
L 54.390625 8.296875 
L 54.390625 0 
L 12.40625 0 
z
" id="DejaVuSans-49"/>
      </defs>
      <g transform="translate(380.848437 266.598437)scale(0.1 -0.1)">
       <use xlink:href="#DejaVuSans-49"/>
       <use x="63.623047" xlink:href="#DejaVuSans-46"/>
       <use x="95.410156" xlink:href="#DejaVuSans-48"/>
      </g>
     </g>
    </g>
    <g id="text_7">
     <!-- Grado de consolidación, $U_z$ -->
     <defs>
      <path d="M 59.515625 10.40625 
L 59.515625 29.984375 
L 43.40625 29.984375 
L 43.40625 38.09375 
L 69.28125 38.09375 
L 69.28125 6.78125 
Q 63.578125 2.734375 56.6875 0.65625 
Q 49.8125 -1.421875 42 -1.421875 
Q 24.90625 -1.421875 15.25 8.5625 
Q 5.609375 18.5625 5.609375 36.375 
Q 5.609375 54.25 15.25 64.234375 
Q 24.90625 74.21875 42 74.21875 
Q 49.125 74.21875 55.546875 72.453125 
Q 61.96875 70.703125 67.390625 67.28125 
L 67.390625 56.78125 
Q 61.921875 61.421875 55.765625 63.765625 
Q 49.609375 66.109375 42.828125 66.109375 
Q 29.4375 66.109375 22.71875 58.640625 
Q 16.015625 51.171875 16.015625 36.375 
Q 16.015625 21.625 22.71875 14.15625 
Q 29.4375 6.6875 42.828125 6.6875 
Q 48.046875 6.6875 52.140625 7.59375 
Q 56.25 8.5 59.515625 10.40625 
z
" id="DejaVuSans-71"/>
      <path d="M 41.109375 46.296875 
Q 39.59375 47.171875 37.8125 47.578125 
Q 36.03125 48 33.890625 48 
Q 26.265625 48 22.1875 43.046875 
Q 18.109375 38.09375 18.109375 28.8125 
L 18.109375 0 
L 9.078125 0 
L 9.078125 54.6875 
L 18.109375 54.6875 
L 18.109375 46.1875 
Q 20.953125 51.171875 25.484375 53.578125 
Q 30.03125 56 36.53125 56 
Q 37.453125 56 38.578125 55.875 
Q 39.703125 55.765625 41.0625 55.515625 
z
" id="DejaVuSans-114"/>
      <path d="M 34.28125 27.484375 
Q 23.390625 27.484375 19.1875 25 
Q 14.984375 22.515625 14.984375 16.5 
Q 14.984375 11.71875 18.140625 8.90625 
Q 21.296875 6.109375 26.703125 6.109375 
Q 34.1875 6.109375 38.703125 11.40625 
Q 43.21875 16.703125 43.21875 25.484375 
L 43.21875 27.484375 
z
M 52.203125 31.203125 
L 52.203125 0 
L 43.21875 0 
L 43.21875 8.296875 
Q 40.140625 3.328125 35.546875 0.953125 
Q 30.953125 -1.421875 24.3125 -1.421875 
Q 15.921875 -1.421875 10.953125 3.296875 
Q 6 8.015625 6 15.921875 
Q 6 25.140625 12.171875 29.828125 
Q 18.359375 34.515625 30.609375 34.515625 
L 43.21875 34.515625 
L 43.21875 35.40625 
Q 43.21875 41.609375 39.140625 45 
Q 35.0625 48.390625 27.6875 48.390625 
Q 23 48.390625 18.546875 47.265625 
Q 14.109375 46.140625 10.015625 43.890625 
L 10.015625 52.203125 
Q 14.9375 54.109375 19.578125 55.046875 
Q 24.21875 56 28.609375 56 
Q 40.484375 56 46.34375 49.84375 
Q 52.203125 43.703125 52.203125 31.203125 
z
" id="DejaVuSans-97"/>
      <path d="M 45.40625 46.390625 
L 45.40625 75.984375 
L 54.390625 75.984375 
L 54.390625 0 
L 45.40625 0 
L 45.40625 8.203125 
Q 42.578125 3.328125 38.25 0.953125 
Q 33.9375 -1.421875 27.875 -1.421875 
Q 17.96875 -1.421875 11.734375 6.484375 
Q 5.515625 14.40625 5.515625 27.296875 
Q 5.515625 40.1875 11.734375 48.09375 
Q 17.96875 56 27.875 56 
Q 33.9375 56 38.25 53.625 
Q 42.578125 51.265625 45.40625 46.390625 
z
M 14.796875 27.296875 
Q 14.796875 17.390625 18.875 11.75 
Q 22.953125 6.109375 30.078125 6.109375 
Q 37.203125 6.109375 41.296875 11.75 
Q 45.40625 17.390625 45.40625 27.296875 
Q 45.40625 37.203125 41.296875 42.84375 
Q 37.203125 48.484375 30.078125 48.484375 
Q 22.953125 48.484375 18.875 42.84375 
Q 14.796875 37.203125 14.796875 27.296875 
z
" id="DejaVuSans-100"/>
      <path d="M 30.609375 48.390625 
Q 23.390625 48.390625 19.1875 42.75 
Q 14.984375 37.109375 14.984375 27.296875 
Q 14.984375 17.484375 19.15625 11.84375 
Q 23.34375 6.203125 30.609375 6.203125 
Q 37.796875 6.203125 41.984375 11.859375 
Q 46.1875 17.53125 46.1875 27.296875 
Q 46.1875 37.015625 41.984375 42.703125 
Q 37.796875 48.390625 30.609375 48.390625 
z
M 30.609375 56 
Q 42.328125 56 49.015625 48.375 
Q 55.71875 40.765625 55.71875 27.296875 
Q 55.71875 13.875 49.015625 6.21875 
Q 42.328125 -1.421875 30.609375 -1.421875 
Q 18.84375 -1.421875 12.171875 6.21875 
Q 5.515625 13.875 5.515625 27.296875 
Q 5.515625 40.765625 12.171875 48.375 
Q 18.84375 56 30.609375 56 
z
" id="DejaVuSans-111"/>
      <path id="DejaVuSans-32"/>
      <path d="M 56.203125 29.59375 
L 56.203125 25.203125 
L 14.890625 25.203125 
Q 15.484375 15.921875 20.484375 11.0625 
Q 25.484375 6.203125 34.421875 6.203125 
Q 39.59375 6.203125 44.453125 7.46875 
Q 49.3125 8.734375 54.109375 11.28125 
L 54.109375 2.78125 
Q 49.265625 0.734375 44.1875 -0.34375 
Q 39.109375 -1.421875 33.890625 -1.421875 
Q 20.796875 -1.421875 13.15625 6.1875 
Q 5.515625 13.8125 5.515625 26.8125 
Q 5.515625 40.234375 12.765625 48.109375 
Q 20.015625 56 32.328125 56 
Q 43.359375 56 49.78125 48.890625 
Q 56.203125 41.796875 56.203125 29.59375 
z
M 47.21875 32.234375 
Q 47.125 39.59375 43.09375 43.984375 
Q 39.0625 48.390625 32.421875 48.390625 
Q 24.90625 48.390625 20.390625 44.140625 
Q 15.875 39.890625 15.1875 32.171875 
z
" id="DejaVuSans-101"/>
      <path d="M 48.78125 52.59375 
L 48.78125 44.1875 
Q 44.96875 46.296875 41.140625 47.34375 
Q 37.3125 48.390625 33.40625 48.390625 
Q 24.65625 48.390625 19.8125 42.84375 
Q 14.984375 37.3125 14.984375 27.296875 
Q 14.984375 17.28125 19.8125 11.734375 
Q 24.65625 6.203125 33.40625 6.203125 
Q 37.3125 6.203125 41.140625 7.25 
Q 44.96875 8.296875 48.78125 10.40625 
L 48.78125 2.09375 
Q 45.015625 0.34375 40.984375 -0.53125 
Q 36.96875 -1.421875 32.421875 -1.421875 
Q 20.0625 -1.421875 12.78125 6.34375 
Q 5.515625 14.109375 5.515625 27.296875 
Q 5.515625 40.671875 12.859375 48.328125 
Q 20.21875 56 33.015625 56 
Q 37.15625 56 41.109375 55.140625 
Q 45.0625 54.296875 48.78125 52.59375 
z
" id="DejaVuSans-99"/>
      <path d="M 54.890625 33.015625 
L 54.890625 0 
L 45.90625 0 
L 45.90625 32.71875 
Q 45.90625 40.484375 42.875 44.328125 
Q 39.84375 48.1875 33.796875 48.1875 
Q 26.515625 48.1875 22.3125 43.546875 
Q 18.109375 38.921875 18.109375 30.90625 
L 18.109375 0 
L 9.078125 0 
L 9.078125 54.6875 
L 18.109375 54.6875 
L 18.109375 46.1875 
Q 21.34375 51.125 25.703125 53.5625 
Q 30.078125 56 35.796875 56 
Q 45.21875 56 50.046875 50.171875 
Q 54.890625 44.34375 54.890625 33.015625 
z
" id="DejaVuSans-110"/>
      <path d="M 44.28125 53.078125 
L 44.28125 44.578125 
Q 40.484375 46.53125 36.375 47.5 
Q 32.28125 48.484375 27.875 48.484375 
Q 21.1875 48.484375 17.84375 46.4375 
Q 14.5 44.390625 14.5 40.28125 
Q 14.5 37.15625 16.890625 35.375 
Q 19.28125 33.59375 26.515625 31.984375 
L 29.59375 31.296875 
Q 39.15625 29.25 43.1875 25.515625 
Q 47.21875 21.78125 47.21875 15.09375 
Q 47.21875 7.46875 41.1875 3.015625 
Q 35.15625 -1.421875 24.609375 -1.421875 
Q 20.21875 -1.421875 15.453125 -0.5625 
Q 10.6875 0.296875 5.421875 2 
L 5.421875 11.28125 
Q 10.40625 8.6875 15.234375 7.390625 
Q 20.0625 6.109375 24.8125 6.109375 
Q 31.15625 6.109375 34.5625 8.28125 
Q 37.984375 10.453125 37.984375 14.40625 
Q 37.984375 18.0625 35.515625 20.015625 
Q 33.0625 21.96875 24.703125 23.78125 
L 21.578125 24.515625 
Q 13.234375 26.265625 9.515625 29.90625 
Q 5.8125 33.546875 5.8125 39.890625 
Q 5.8125 47.609375 11.28125 51.796875 
Q 16.75 56 26.8125 56 
Q 31.78125 56 36.171875 55.265625 
Q 40.578125 54.546875 44.28125 53.078125 
z
" id="DejaVuSans-115"/>
      <path d="M 9.421875 75.984375 
L 18.40625 75.984375 
L 18.40625 0 
L 9.421875 0 
z
" id="DejaVuSans-108"/>
      <path d="M 9.421875 54.6875 
L 18.40625 54.6875 
L 18.40625 0 
L 9.421875 0 
z
M 9.421875 75.984375 
L 18.40625 75.984375 
L 18.40625 64.59375 
L 9.421875 64.59375 
z
" id="DejaVuSans-105"/>
      <path d="M 30.609375 48.390625 
Q 23.390625 48.390625 19.1875 42.75 
Q 14.984375 37.109375 14.984375 27.296875 
Q 14.984375 17.484375 19.15625 11.84375 
Q 23.34375 6.203125 30.609375 6.203125 
Q 37.796875 6.203125 41.984375 11.859375 
Q 46.1875 17.53125 46.1875 27.296875 
Q 46.1875 37.015625 41.984375 42.703125 
Q 37.796875 48.390625 30.609375 48.390625 
z
M 30.609375 56 
Q 42.328125 56 49.015625 48.375 
Q 55.71875 40.765625 55.71875 27.296875 
Q 55.71875 13.875 49.015625 6.21875 
Q 42.328125 -1.421875 30.609375 -1.421875 
Q 18.84375 -1.421875 12.171875 6.21875 
Q 5.515625 13.875 5.515625 27.296875 
Q 5.515625 40.765625 12.171875 48.375 
Q 18.84375 56 30.609375 56 
z
M 37.40625 79.984375 
L 47.125 79.984375 
L 31.21875 61.625 
L 23.734375 61.625 
z
" id="DejaVuSans-243"/>
      <path d="M 11.71875 12.40625 
L 22.015625 12.40625 
L 22.015625 4 
L 14.015625 -11.625 
L 7.71875 -11.625 
L 11.71875 4 
z
" id="DejaVuSans-44"/>
      <path d="M 15.484375 72.90625 
L 25.390625 72.90625 
L 16.796875 28.609375 
Q 16.265625 25.640625 16.046875 23.703125 
Q 15.828125 21.78125 15.828125 20.3125 
Q 15.828125 13.578125 19.578125 10.078125 
Q 23.34375 6.59375 30.609375 6.59375 
Q 40.046875 6.59375 45.28125 11.765625 
Q 50.53125 16.9375 52.78125 28.609375 
L 61.375 72.90625 
L 71.296875 72.90625 
L 62.5 27.390625 
Q 59.625 12.640625 51.5625 5.609375 
Q 43.5 -1.421875 29.5 -1.421875 
Q 18.5625 -1.421875 12.1875 4.078125 
Q 5.8125 9.578125 5.8125 19 
Q 5.8125 20.703125 6.046875 22.828125 
Q 6.296875 24.953125 6.78125 27.390625 
z
" id="DejaVuSans-Oblique-85"/>
      <path d="M 11.625 54.6875 
L 54.296875 54.6875 
L 52.6875 46.484375 
L 11.53125 7.171875 
L 45.515625 7.171875 
L 44.09375 0 
L -0.296875 0 
L 1.3125 8.203125 
L 42.484375 47.515625 
L 10.203125 47.515625 
z
" id="DejaVuSans-Oblique-122"/>
     </defs>
     <g transform="translate(153.9 280.298437)scale(0.1 -0.1)">
      <use transform="translate(0 0.015625)" xlink:href="#DejaVuSans-71"/>
      <use transform="translate(77.490234 0.015625)" xlink:href="#DejaVuSans-114"/>
      <use transform="translate(118.603516 0.015625)" xlink:href="#DejaVuSans-97"/>
      <use transform="translate(179.882812 0.015625)" xlink:href="#DejaVuSans-100"/>
      <use transform="translate(243.359375 0.015625)" xlink:href="#DejaVuSans-111"/>
      <use transform="translate(304.541016 0.015625)" xlink:href="#DejaVuSans-32"/>
      <use transform="translate(336.328125 0.015625)" xlink:href="#DejaVuSans-100"/>
      <use transform="translate(399.804688 0.015625)" xlink:href="#DejaVuSans-101"/>
      <use transform="translate(461.328125 0.015625)" xlink:href="#DejaVuSans-32"/>
      <use transform="translate(493.115234 0.015625)" xlink:href="#DejaVuSans-99"/>
      <use transform="translate(548.095703 0.015625)" xlink:href="#DejaVuSans-111"/>
      <use transform="translate(609.277344 0.015625)" xlink:href="#DejaVuSans-110"/>
      <use transform="translate(672.65625 0.015625)" xlink:href="#DejaVuSans-115"/>
      <use transform="translate(724.755859 0.015625)" xlink:href="#DejaVuSans-111"/>
      <use transform="translate(785.9375 0.015625)" xlink:href="#DejaVuSans-108"/>
      <use transform="translate(813.720703 0.015625)" xlink:href="#DejaVuSans-105"/>
      <use transform="translate(841.503906 0.015625)" xlink:href="#DejaVuSans-100"/>
      <use transform="translate(904.980469 0.015625)" xlink:href="#DejaVuSans-97"/>
      <use transform="translate(966.259766 0.015625)" xlink:href="#DejaVuSans-99"/>
      <use transform="translate(1021.240234 0.015625)" xlink:href="#DejaVuSans-105"/>
      <use transform="translate(1049.023438 0.015625)" xlink:href="#DejaVuSans-243"/>
      <use transform="translate(1110.205078 0.015625)" xlink:href="#DejaVuSans-110"/>
      <use transform="translate(1173.583984 0.015625)" xlink:href="#DejaVuSans-44"/>
      <use transform="translate(1205.371094 0.015625)" xlink:href="#DejaVuSans-32"/>
      <use transform="translate(1237.158203 0.015625)" xlink:href="#DejaVuSans-Oblique-85"/>
      <use transform="translate(1310.351562 -16.390625)scale(0.7)" xlink:href="#DejaVuSans-Oblique-122"/>
     </g>
    </g>
   </g>
   <g id="matplotlib.axis_2">
    <g id="ytick_1">
     <g id="line2d_13">
      <path clip-path="url(#p5b26229dfa)" d="M 54 252 
L 388.8 252 
" style="fill:none;stroke:#b0b0b0;stroke-linecap:square;stroke-width:0.8;"/>
     </g>
     <g id="line2d_14">
      <defs>
       <path d="M 0 0 
L -3.5 0 
" id="m8d999f12c8" style="stroke:#000000;stroke-width:0.8;"/>
      </defs>
      <g>
       <use style="stroke:#000000;stroke-width:0.8;" x="54" xlink:href="#m8d999f12c8" y="252"/>
      </g>
     </g>
     <g id="text_8">
      <!-- −1.00 -->
      <defs>
       <path d="M 10.59375 35.5 
L 73.1875 35.5 
L 73.1875 27.203125 
L 10.59375 27.203125 
z
" id="DejaVuSans-8722"/>
      </defs>
      <g transform="translate(16.354687 255.799219)scale(0.1 -0.1)">
       <use xlink:href="#DejaVuSans-8722"/>
       <use x="83.789062" xlink:href="#DejaVuSans-49"/>
       <use x="147.412109" xlink:href="#DejaVuSans-46"/>
       <use x="179.199219" xlink:href="#DejaVuSans-48"/>
       <use x="242.822266" xlink:href="#DejaVuSans-48"/>
      </g>
     </g>
    </g>
    <g id="ytick_2">
     <g id="line2d_15">
      <path clip-path="url(#p5b26229dfa)" d="M 54 224.82 
L 388.8 224.82 
" style="fill:none;stroke:#b0b0b0;stroke-linecap:square;stroke-width:0.8;"/>
     </g>
     <g id="line2d_16">
      <g>
       <use style="stroke:#000000;stroke-width:0.8;" x="54" xlink:href="#m8d999f12c8" y="224.82"/>
      </g>
     </g>
     <g id="text_9">
      <!-- −0.75 -->
      <defs>
       <path d="M 8.203125 72.90625 
L 55.078125 72.90625 
L 55.078125 68.703125 
L 28.609375 0 
L 18.3125 0 
L 43.21875 64.59375 
L 8.203125 64.59375 
z
" id="DejaVuSans-55"/>
       <path d="M 10.796875 72.90625 
L 49.515625 72.90625 
L 49.515625 64.59375 
L 19.828125 64.59375 
L 19.828125 46.734375 
Q 21.96875 47.46875 24.109375 47.828125 
Q 26.265625 48.1875 28.421875 48.1875 
Q 40.625 48.1875 47.75 41.5 
Q 54.890625 34.8125 54.890625 23.390625 
Q 54.890625 11.625 47.5625 5.09375 
Q 40.234375 -1.421875 26.90625 -1.421875 
Q 22.3125 -1.421875 17.546875 -0.640625 
Q 12.796875 0.140625 7.71875 1.703125 
L 7.71875 11.625 
Q 12.109375 9.234375 16.796875 8.0625 
Q 21.484375 6.890625 26.703125 6.890625 
Q 35.15625 6.890625 40.078125 11.328125 
Q 45.015625 15.765625 45.015625 23.390625 
Q 45.015625 31 40.078125 35.4375 
Q 35.15625 39.890625 26.703125 39.890625 
Q 22.75 39.890625 18.8125 39.015625 
Q 14.890625 38.140625 10.796875 36.28125 
z
" id="DejaVuSans-53"/>
      </defs>
      <g transform="translate(16.354687 228.619219)scale(0.1 -0.1)">
       <use xlink:href="#DejaVuSans-8722"/>
       <use x="83.789062" xlink:href="#DejaVuSans-48"/>
       <use x="147.412109" xlink:href="#DejaVuSans-46"/>
       <use x="179.199219" xlink:href="#DejaVuSans-55"/>
       <use x="242.822266" xlink:href="#DejaVuSans-53"/>
      </g>
     </g>
    </g>
    <g id="ytick_3">
     <g id="line2d_17">
      <path clip-path="url(#p5b26229dfa)" d="M 54 197.64 
L 388.8 197.64 
" style="fill:none;stroke:#b0b0b0;stroke-linecap:square;stroke-width:0.8;"/>
     </g>
     <g id="line2d_18">
      <g>
       <use style="stroke:#000000;stroke-width:0.8;" x="54" xlink:href="#m8d999f12c8" y="197.64"/>
      </g>
     </g>
     <g id="text_10">
      <!-- −0.50 -->
      <g transform="translate(16.354687 201.439219)scale(0.1 -0.1)">
       <use xlink:href="#DejaVuSans-8722"/>
       <use x="83.789062" xlink:href="#DejaVuSans-48"/>
       <use x="147.412109" xlink:href="#DejaVuSans-46"/>
       <use x="179.199219" xlink:href="#DejaVuSans-53"/>
       <use x="242.822266" xlink:href="#DejaVuSans-48"/>
      </g>
     </g>
    </g>
    <g id="ytick_4">
     <g id="line2d_19">
      <path clip-path="url(#p5b26229dfa)" d="M 54 170.46 
L 388.8 170.46 
" style="fill:none;stroke:#b0b0b0;stroke-linecap:square;stroke-width:0.8;"/>
     </g>
     <g id="line2d_20">
      <g>
       <use style="stroke:#000000;stroke-width:0.8;" x="54" xlink:href="#m8d999f12c8" y="170.46"/>
      </g>
     </g>
     <g id="text_11">
      <!-- −0.25 -->
      <g transform="translate(16.354687 174.259219)scale(0.1 -0.1)">
       <use xlink:href="#DejaVuSans-8722"/>
       <use x="83.789062" xlink:href="#DejaVuSans-48"/>
       <use x="147.412109" xlink:href="#DejaVuSans-46"/>
       <use x="179.199219" xlink:href="#DejaVuSans-50"/>
       <use x="242.822266" xlink:href="#DejaVuSans-53"/>
      </g>
     </g>
    </g>
    <g id="ytick_5">
     <g id="line2d_21">
      <path clip-path="url(#p5b26229dfa)" d="M 54 143.28 
L 388.8 143.28 
" style="fill:none;stroke:#b0b0b0;stroke-linecap:square;stroke-width:0.8;"/>
     </g>
     <g id="line2d_22">
      <g>
       <use style="stroke:#000000;stroke-width:0.8;" x="54" xlink:href="#m8d999f12c8" y="143.28"/>
      </g>
     </g>
     <g id="text_12">
      <!-- 0.00 -->
      <g transform="translate(24.734375 147.079219)scale(0.1 -0.1)">
       <use xlink:href="#DejaVuSans-48"/>
       <use x="63.623047" xlink:href="#DejaVuSans-46"/>
       <use x="95.410156" xlink:href="#DejaVuSans-48"/>
       <use x="159.033203" xlink:href="#DejaVuSans-48"/>
      </g>
     </g>
    </g>
    <g id="ytick_6">
     <g id="line2d_23">
      <path clip-path="url(#p5b26229dfa)" d="M 54 116.1 
L 388.8 116.1 
" style="fill:none;stroke:#b0b0b0;stroke-linecap:square;stroke-width:0.8;"/>
     </g>
     <g id="line2d_24">
      <g>
       <use style="stroke:#000000;stroke-width:0.8;" x="54" xlink:href="#m8d999f12c8" y="116.1"/>
      </g>
     </g>
     <g id="text_13">
      <!-- 0.25 -->
      <g transform="translate(24.734375 119.899219)scale(0.1 -0.1)">
       <use xlink:href="#DejaVuSans-48"/>
       <use x="63.623047" xlink:href="#DejaVuSans-46"/>
       <use x="95.410156" xlink:href="#DejaVuSans-50"/>
       <use x="159.033203" xlink:href="#DejaVuSans-53"/>
      </g>
     </g>
    </g>
    <g id="ytick_7">
     <g id="line2d_25">
      <path clip-path="url(#p5b26229dfa)" d="M 54 88.92 
L 388.8 88.92 
" style="fill:none;stroke:#b0b0b0;stroke-linecap:square;stroke-width:0.8;"/>
     </g>
     <g id="line2d_26">
      <g>
       <use style="stroke:#000000;stroke-width:0.8;" x="54" xlink:href="#m8d999f12c8" y="88.92"/>
      </g>
     </g>
     <g id="text_14">
      <!-- 0.50 -->
      <g transform="translate(24.734375 92.719219)scale(0.1 -0.1)">
       <use xlink:href="#DejaVuSans-48"/>
       <use x="63.623047" xlink:href="#DejaVuSans-46"/>
       <use x="95.410156" xlink:href="#DejaVuSans-53"/>
       <use x="159.033203" xlink:href="#DejaVuSans-48"/>
      </g>
     </g>
    </g>
    <g id="ytick_8">
     <g id="line2d_27">
      <path clip-path="url(#p5b26229dfa)" d="M 54 61.74 
L 388.8 61.74 
" style="fill:none;stroke:#b0b0b0;stroke-linecap:square;stroke-width:0.8;"/>
     </g>
     <g id="line2d_28">
      <g>
       <use style="stroke:#000000;stroke-width:0.8;" x="54" xlink:href="#m8d999f12c8" y="61.74"/>
      </g>
     </g>
     <g id="text_15">
      <!-- 0.75 -->
      <g transform="translate(24.734375 65.539219)scale(0.1 -0.1)">
       <use xlink:href="#DejaVuSans-48"/>
       <use x="63.623047" xlink:href="#DejaVuSans-46"/>
       <use x="95.410156" xlink:href="#DejaVuSans-55"/>
       <use x="159.033203" xlink:href="#DejaVuSans-53"/>
      </g>
     </g>
    </g>
    <g id="ytick_9">
     <g id="line2d_29">
      <path clip-path="url(#p5b26229dfa)" d="M 54 34.56 
L 388.8 34.56 
" style="fill:none;stroke:#b0b0b0;stroke-linecap:square;stroke-width:0.8;"/>
     </g>
     <g id="line2d_30">
      <g>
       <use style="stroke:#000000;stroke-width:0.8;" x="54" xlink:href="#m8d999f12c8" y="34.56"/>
      </g>
     </g>
     <g id="text_16">
      <!-- 1.00 -->
      <g transform="translate(24.734375 38.359219)scale(0.1 -0.1)">
       <use xlink:href="#DejaVuSans-49"/>
       <use x="63.623047" xlink:href="#DejaVuSans-46"/>
       <use x="95.410156" xlink:href="#DejaVuSans-48"/>
       <use x="159.033203" xlink:href="#DejaVuSans-48"/>
      </g>
     </g>
    </g>
    <g id="text_17">
     <!-- Altura relativa, $Z_r$ -->
     <defs>
      <path d="M 34.1875 63.1875 
L 20.796875 26.90625 
L 47.609375 26.90625 
z
M 28.609375 72.90625 
L 39.796875 72.90625 
L 67.578125 0 
L 57.328125 0 
L 50.6875 18.703125 
L 17.828125 18.703125 
L 11.1875 0 
L 0.78125 0 
z
" id="DejaVuSans-65"/>
      <path d="M 18.3125 70.21875 
L 18.3125 54.6875 
L 36.8125 54.6875 
L 36.8125 47.703125 
L 18.3125 47.703125 
L 18.3125 18.015625 
Q 18.3125 11.328125 20.140625 9.421875 
Q 21.96875 7.515625 27.59375 7.515625 
L 36.8125 7.515625 
L 36.8125 0 
L 27.59375 0 
Q 17.1875 0 13.234375 3.875 
Q 9.28125 7.765625 9.28125 18.015625 
L 9.28125 47.703125 
L 2.6875 47.703125 
L 2.6875 54.6875 
L 9.28125 54.6875 
L 9.28125 70.21875 
z
" id="DejaVuSans-116"/>
      <path d="M 8.5 21.578125 
L 8.5 54.6875 
L 17.484375 54.6875 
L 17.484375 21.921875 
Q 17.484375 14.15625 20.5 10.265625 
Q 23.53125 6.390625 29.59375 6.390625 
Q 36.859375 6.390625 41.078125 11.03125 
Q 45.3125 15.671875 45.3125 23.6875 
L 45.3125 54.6875 
L 54.296875 54.6875 
L 54.296875 0 
L 45.3125 0 
L 45.3125 8.40625 
Q 42.046875 3.421875 37.71875 1 
Q 33.40625 -1.421875 27.6875 -1.421875 
Q 18.265625 -1.421875 13.375 4.4375 
Q 8.5 10.296875 8.5 21.578125 
z
M 31.109375 56 
z
" id="DejaVuSans-117"/>
      <path d="M 2.984375 54.6875 
L 12.5 54.6875 
L 29.59375 8.796875 
L 46.6875 54.6875 
L 56.203125 54.6875 
L 35.6875 0 
L 23.484375 0 
z
" id="DejaVuSans-118"/>
      <path d="M 13.09375 72.90625 
L 70.3125 72.90625 
L 68.890625 65.375 
L 12.40625 8.296875 
L 58.890625 8.296875 
L 57.328125 0 
L -2.203125 0 
L -0.78125 7.515625 
L 55.71875 64.59375 
L 11.53125 64.59375 
z
" id="DejaVuSans-Oblique-90"/>
      <path d="M 44.578125 46.390625 
Q 43.21875 47.125 41.453125 47.515625 
Q 39.703125 47.90625 37.703125 47.90625 
Q 30.515625 47.90625 25.140625 42.453125 
Q 19.78125 37.015625 18.015625 27.875 
L 12.5 0 
L 3.515625 0 
L 14.203125 54.6875 
L 23.1875 54.6875 
L 21.484375 46.1875 
Q 25.046875 50.921875 30 53.453125 
Q 34.96875 56 40.578125 56 
Q 42.046875 56 43.453125 55.828125 
Q 44.875 55.671875 46.296875 55.28125 
z
" id="DejaVuSans-Oblique-114"/>
     </defs>
     <g transform="translate(10.275 187.08)rotate(-90)scale(0.1 -0.1)">
      <use transform="translate(0 0.015625)" xlink:href="#DejaVuSans-65"/>
      <use transform="translate(68.408203 0.015625)" xlink:href="#DejaVuSans-108"/>
      <use transform="translate(96.191406 0.015625)" xlink:href="#DejaVuSans-116"/>
      <use transform="translate(135.400391 0.015625)" xlink:href="#DejaVuSans-117"/>
      <use transform="translate(198.779297 0.015625)" xlink:href="#DejaVuSans-114"/>
      <use transform="translate(239.892578 0.015625)" xlink:href="#DejaVuSans-97"/>
      <use transform="translate(301.171875 0.015625)" xlink:href="#DejaVuSans-32"/>
      <use transform="translate(332.958984 0.015625)" xlink:href="#DejaVuSans-114"/>
      <use transform="translate(374.072266 0.015625)" xlink:href="#DejaVuSans-101"/>
      <use transform="translate(435.595703 0.015625)" xlink:href="#DejaVuSans-108"/>
      <use transform="translate(463.378906 0.015625)" xlink:href="#DejaVuSans-97"/>
      <use transform="translate(524.658203 0.015625)" xlink:href="#DejaVuSans-116"/>
      <use transform="translate(563.867188 0.015625)" xlink:href="#DejaVuSans-105"/>
      <use transform="translate(591.650391 0.015625)" xlink:href="#DejaVuSans-118"/>
      <use transform="translate(650.830078 0.015625)" xlink:href="#DejaVuSans-97"/>
      <use transform="translate(712.109375 0.015625)" xlink:href="#DejaVuSans-44"/>
      <use transform="translate(743.896484 0.015625)" xlink:href="#DejaVuSans-32"/>
      <use transform="translate(775.683594 0.015625)" xlink:href="#DejaVuSans-Oblique-90"/>
      <use transform="translate(844.189453 -16.390625)scale(0.7)" xlink:href="#DejaVuSans-Oblique-114"/>
     </g>
    </g>
   </g>
   <g id="line2d_31">
    <path clip-path="url(#p5b26229dfa)" d="M 388.8 252 
L 371.571192 249.781224 
L 354.41604 247.562449 
L 337.401504 245.343673 
L 320.597892 243.124898 
L 304.075512 240.906122 
L 287.89128 238.687347 
L 272.10546 236.468571 
L 256.77162 234.249796 
L 241.943328 232.03102 
L 227.657412 229.812245 
L 213.957396 227.593469 
L 200.866716 225.374694 
L 188.418852 223.155918 
L 176.623848 220.937143 
L 165.495096 218.718367 
L 155.04264 216.499592 
L 145.263132 214.280816 
L 136.153224 212.062041 
L 127.699524 209.843265 
L 119.88864 207.62449 
L 112.700484 205.405714 
L 106.118316 203.186939 
L 100.108656 200.968163 
L 94.648068 198.749388 
L 89.709768 196.530612 
L 85.256928 194.311837 
L 81.262764 192.093061 
L 77.693796 189.874286 
L 74.516544 187.65551 
L 71.700876 185.436735 
L 69.21666 183.217959 
L 67.033764 180.999184 
L 65.122056 178.780408 
L 63.4581 176.561633 
L 62.01846 174.342857 
L 60.773004 172.124082 
L 59.701644 169.905306 
L 58.78764 167.686531 
L 58.010904 165.467755 
L 57.354696 163.24898 
L 56.805624 161.030204 
L 56.350296 158.811429 
L 55.978668 156.592653 
L 55.677348 154.373878 
L 55.442988 152.155102 
L 55.265544 149.936327 
L 55.145016 147.717551 
L 55.07136 145.498776 
L 55.047924 143.28 
L 55.07136 141.061224 
L 55.145016 138.842449 
L 55.265544 136.623673 
L 55.442988 134.404898 
L 55.677348 132.186122 
L 55.978668 129.967347 
L 56.350296 127.748571 
L 56.805624 125.529796 
L 57.354696 123.31102 
L 58.010904 121.092245 
L 58.78764 118.873469 
L 59.701644 116.654694 
L 60.773004 114.435918 
L 62.01846 112.217143 
L 63.4581 109.998367 
L 65.122056 107.779592 
L 67.033764 105.560816 
L 69.21666 103.342041 
L 71.700876 101.123265 
L 74.516544 98.90449 
L 77.693796 96.685714 
L 81.262764 94.466939 
L 85.256928 92.248163 
L 89.709768 90.029388 
L 94.648068 87.810612 
L 100.108656 85.591837 
L 106.118316 83.373061 
L 112.700484 81.154286 
L 119.88864 78.93551 
L 127.699524 76.716735 
L 136.153224 74.497959 
L 145.263132 72.279184 
L 155.04264 70.060408 
L 165.495096 67.841633 
L 176.623848 65.622857 
L 188.418852 63.404082 
L 200.866716 61.185306 
L 213.957396 58.966531 
L 227.657412 56.747755 
L 241.943328 54.52898 
L 256.77162 52.310204 
L 272.10546 50.091429 
L 287.89128 47.872653 
L 304.075512 45.653878 
L 320.597892 43.435102 
L 337.401504 41.216327 
L 354.41604 38.997551 
L 371.571192 36.778776 
L 388.8 34.56 
" style="fill:none;stroke:#000000;stroke-linecap:square;"/>
   </g>
   <g id="line2d_32">
    <path clip-path="url(#p5b26229dfa)" d="M 388.8 252 
L 376.616628 249.781224 
L 364.456692 247.562449 
L 352.346976 245.343673 
L 340.314264 243.124898 
L 328.378644 240.906122 
L 316.570248 238.687347 
L 304.909164 236.468571 
L 293.41548 234.249796 
L 282.112632 232.03102 
L 271.01736 229.812245 
L 260.156448 227.593469 
L 249.53994 225.374694 
L 239.184576 223.155918 
L 229.110444 220.937143 
L 219.32424 218.718367 
L 209.842704 216.499592 
L 200.67588 214.280816 
L 191.827116 212.062041 
L 183.309804 209.843265 
L 175.123944 207.62449 
L 167.27958 205.405714 
L 159.773364 203.186939 
L 152.608644 200.968163 
L 145.78542 198.749388 
L 139.30704 196.530612 
L 133.16346 194.311837 
L 127.35468 192.093061 
L 121.877352 189.874286 
L 116.72478 187.65551 
L 111.890268 185.436735 
L 107.36712 183.217959 
L 103.151988 180.999184 
L 99.23148 178.780408 
L 95.602248 176.561633 
L 92.254248 174.342857 
L 89.180784 172.124082 
L 86.37516 169.905306 
L 83.823984 167.686531 
L 81.523908 165.467755 
L 79.468236 163.24898 
L 77.650272 161.030204 
L 76.059972 158.811429 
L 74.693988 156.592653 
L 73.545624 154.373878 
L 72.61488 152.155102 
L 71.89506 149.936327 
L 71.382816 147.717551 
L 71.0748 145.498776 
L 70.971012 143.28 
L 71.0748 141.061224 
L 71.382816 138.842449 
L 71.89506 136.623673 
L 72.61488 134.404898 
L 73.545624 132.186122 
L 74.693988 129.967347 
L 76.059972 127.748571 
L 77.650272 125.529796 
L 79.468236 123.31102 
L 81.523908 121.092245 
L 83.823984 118.873469 
L 86.37516 116.654694 
L 89.180784 114.435918 
L 92.254248 112.217143 
L 95.602248 109.998367 
L 99.23148 107.779592 
L 103.151988 105.560816 
L 107.36712 103.342041 
L 111.890268 101.123265 
L 116.72478 98.90449 
L 121.877352 96.685714 
L 127.35468 94.466939 
L 133.16346 92.248163 
L 139.30704 90.029388 
L 145.78542 87.810612 
L 152.608644 85.591837 
L 159.773364 83.373061 
L 167.27958 81.154286 
L 175.123944 78.93551 
L 183.309804 76.716735 
L 191.827116 74.497959 
L 200.67588 72.279184 
L 209.842704 70.060408 
L 219.32424 67.841633 
L 229.110444 65.622857 
L 239.184576 63.404082 
L 249.53994 61.185306 
L 260.156448 58.966531 
L 271.01736 56.747755 
L 282.112632 54.52898 
L 293.41548 52.310204 
L 304.909164 50.091429 
L 316.570248 47.872653 
L 328.378644 45.653878 
L 340.314264 43.435102 
L 352.346976 41.216327 
L 364.456692 38.997551 
L 376.616628 36.778776 
L 388.8 34.56 
" style="fill:none;stroke:#000000;stroke-linecap:square;"/>
   </g>
   <g id="line2d_33">
    <path clip-path="url(#p5b26229dfa)" d="M 388.8 252 
L 380.299428 249.781224 
L 371.805552 247.562449 
L 363.335112 245.343673 
L 354.891456 243.124898 
L 346.491324 240.906122 
L 338.138064 238.687347 
L 329.845068 236.468571 
L 321.62238 234.249796 
L 313.480044 232.03102 
L 305.421408 229.812245 
L 297.463212 227.593469 
L 289.608804 225.374694 
L 281.868228 223.155918 
L 274.251528 220.937143 
L 266.7654 218.718367 
L 259.419888 216.499592 
L 252.221688 214.280816 
L 245.174148 212.062041 
L 238.29066 209.843265 
L 231.574572 207.62449 
L 225.03258 205.405714 
L 218.67138 203.186939 
L 212.497668 200.968163 
L 206.514792 198.749388 
L 200.729448 196.530612 
L 195.144984 194.311837 
L 189.771444 192.093061 
L 184.608828 189.874286 
L 179.660484 187.65551 
L 174.92976 185.436735 
L 170.4267 183.217959 
L 166.147956 180.999184 
L 162.100224 178.780408 
L 158.283504 176.561633 
L 154.701144 174.342857 
L 151.356492 172.124082 
L 148.252896 169.905306 
L 145.390356 167.686531 
L 142.77222 165.467755 
L 140.398488 163.24898 
L 138.26916 161.030204 
L 136.390932 158.811429 
L 134.757108 156.592653 
L 133.377732 154.373878 
L 132.24276 152.155102 
L 131.362236 149.936327 
L 130.732812 147.717551 
L 130.354488 145.498776 
L 130.230612 143.28 
L 130.354488 141.061224 
L 130.732812 138.842449 
L 131.362236 136.623673 
L 132.24276 134.404898 
L 133.377732 132.186122 
L 134.757108 129.967347 
L 136.390932 127.748571 
L 138.26916 125.529796 
L 140.398488 123.31102 
L 142.77222 121.092245 
L 145.390356 118.873469 
L 148.252896 116.654694 
L 151.356492 114.435918 
L 154.701144 112.217143 
L 158.283504 109.998367 
L 162.100224 107.779592 
L 166.147956 105.560816 
L 170.4267 103.342041 
L 174.92976 101.123265 
L 179.660484 98.90449 
L 184.608828 96.685714 
L 189.771444 94.466939 
L 195.144984 92.248163 
L 200.729448 90.029388 
L 206.514792 87.810612 
L 212.497668 85.591837 
L 218.67138 83.373061 
L 225.03258 81.154286 
L 231.574572 78.93551 
L 238.29066 76.716735 
L 245.174148 74.497959 
L 252.221688 72.279184 
L 259.419888 70.060408 
L 266.7654 67.841633 
L 274.251528 65.622857 
L 281.868228 63.404082 
L 289.608804 61.185306 
L 297.463212 58.966531 
L 305.421408 56.747755 
L 313.480044 54.52898 
L 321.62238 52.310204 
L 329.845068 50.091429 
L 338.138064 47.872653 
L 346.491324 45.653878 
L 354.891456 43.435102 
L 363.335112 41.216327 
L 371.805552 38.997551 
L 380.299428 36.778776 
L 388.8 34.56 
" style="fill:none;stroke:#000000;stroke-linecap:square;"/>
   </g>
   <g id="line2d_34">
    <path clip-path="url(#p5b26229dfa)" d="M 388.8 252 
L 382.264704 249.781224 
L 375.736104 247.562449 
L 369.224244 245.343673 
L 362.729124 243.124898 
L 356.264136 240.906122 
L 349.82928 238.687347 
L 343.437948 236.468571 
L 337.096836 234.249796 
L 330.805944 232.03102 
L 324.578664 229.812245 
L 318.414996 227.593469 
L 312.328332 225.374694 
L 306.318672 223.155918 
L 300.39606 220.937143 
L 294.567192 218.718367 
L 288.835416 216.499592 
L 283.207428 214.280816 
L 277.693272 212.062041 
L 272.2896 209.843265 
L 267.009804 207.62449 
L 261.857232 205.405714 
L 256.835232 203.186939 
L 251.9505 200.968163 
L 247.206384 198.749388 
L 242.60958 196.530612 
L 238.163436 194.311837 
L 233.874648 192.093061 
L 229.743216 189.874286 
L 225.779184 187.65551 
L 221.979204 185.436735 
L 218.35332 183.217959 
L 214.90488 180.999184 
L 211.633884 178.780408 
L 208.54368 176.561633 
L 205.637616 174.342857 
L 202.922388 172.124082 
L 200.394648 169.905306 
L 198.061092 167.686531 
L 195.92172 165.467755 
L 193.983228 163.24898 
L 192.242268 161.030204 
L 190.702188 158.811429 
L 189.362988 156.592653 
L 188.228016 154.373878 
L 187.297272 152.155102 
L 186.574104 149.936327 
L 186.055164 147.717551 
L 185.747148 145.498776 
L 185.64336 143.28 
L 185.747148 141.061224 
L 186.055164 138.842449 
L 186.574104 136.623673 
L 187.297272 134.404898 
L 188.228016 132.186122 
L 189.362988 129.967347 
L 190.702188 127.748571 
L 192.242268 125.529796 
L 193.983228 123.31102 
L 195.92172 121.092245 
L 198.061092 118.873469 
L 200.394648 116.654694 
L 202.922388 114.435918 
L 205.637616 112.217143 
L 208.54368 109.998367 
L 211.633884 107.779592 
L 214.90488 105.560816 
L 218.35332 103.342041 
L 221.979204 101.123265 
L 225.779184 98.90449 
L 229.743216 96.685714 
L 233.874648 94.466939 
L 238.163436 92.248163 
L 242.60958 90.029388 
L 247.206384 87.810612 
L 251.9505 85.591837 
L 256.835232 83.373061 
L 261.857232 81.154286 
L 267.009804 78.93551 
L 272.2896 76.716735 
L 277.693272 74.497959 
L 283.207428 72.279184 
L 288.835416 70.060408 
L 294.567192 67.841633 
L 300.39606 65.622857 
L 306.318672 63.404082 
L 312.328332 61.185306 
L 318.414996 58.966531 
L 324.578664 56.747755 
L 330.805944 54.52898 
L 337.096836 52.310204 
L 343.437948 50.091429 
L 349.82928 47.872653 
L 356.264136 45.653878 
L 362.729124 43.435102 
L 369.224244 41.216327 
L 375.736104 38.997551 
L 382.264704 36.778776 
L 388.8 34.56 
" style="fill:none;stroke:#000000;stroke-linecap:square;"/>
   </g>
   <g id="line2d_35">
    <path clip-path="url(#p5b26229dfa)" d="M 388.8 252 
L 383.704344 249.781224 
L 378.615384 247.562449 
L 373.539816 245.343673 
L 368.474292 243.124898 
L 363.435552 240.906122 
L 358.4169 238.687347 
L 353.435076 236.468571 
L 348.486732 234.249796 
L 343.578564 232.03102 
L 338.720616 229.812245 
L 333.912888 227.593469 
L 329.158728 225.374694 
L 324.471528 223.155918 
L 319.844592 220.937143 
L 315.29466 218.718367 
L 310.815036 216.499592 
L 306.419112 214.280816 
L 302.106888 212.062041 
L 297.88506 209.843265 
L 293.753628 207.62449 
L 289.722636 205.405714 
L 285.795432 203.186939 
L 281.968668 200.968163 
L 278.255736 198.749388 
L 274.656636 196.530612 
L 271.174716 194.311837 
L 267.813324 192.093061 
L 264.575808 189.874286 
L 261.465516 187.65551 
L 258.489144 185.436735 
L 255.643344 183.217959 
L 252.934812 180.999184 
L 250.366896 178.780408 
L 247.942944 176.561633 
L 245.659608 174.342857 
L 243.526932 172.124082 
L 241.541568 169.905306 
L 239.706864 167.686531 
L 238.026168 165.467755 
L 236.502828 163.24898 
L 235.133496 161.030204 
L 233.92152 158.811429 
L 232.8669 156.592653 
L 231.976332 154.373878 
L 231.24312 152.155102 
L 230.67396 149.936327 
L 230.268852 147.717551 
L 230.024448 145.498776 
L 229.940748 143.28 
L 230.024448 141.061224 
L 230.268852 138.842449 
L 230.67396 136.623673 
L 231.24312 134.404898 
L 231.976332 132.186122 
L 232.8669 129.967347 
L 233.92152 127.748571 
L 235.133496 125.529796 
L 236.502828 123.31102 
L 238.026168 121.092245 
L 239.706864 118.873469 
L 241.541568 116.654694 
L 243.526932 114.435918 
L 245.659608 112.217143 
L 247.942944 109.998367 
L 250.366896 107.779592 
L 252.934812 105.560816 
L 255.643344 103.342041 
L 258.489144 101.123265 
L 261.465516 98.90449 
L 264.575808 96.685714 
L 267.813324 94.466939 
L 271.174716 92.248163 
L 274.656636 90.029388 
L 278.255736 87.810612 
L 281.968668 85.591837 
L 285.795432 83.373061 
L 289.722636 81.154286 
L 293.753628 78.93551 
L 297.88506 76.716735 
L 302.106888 74.497959 
L 306.419112 72.279184 
L 310.815036 70.060408 
L 315.29466 67.841633 
L 319.844592 65.622857 
L 324.471528 63.404082 
L 329.158728 61.185306 
L 333.912888 58.966531 
L 338.720616 56.747755 
L 343.578564 54.52898 
L 348.486732 52.310204 
L 353.435076 50.091429 
L 358.4169 47.872653 
L 363.435552 45.653878 
L 368.474292 43.435102 
L 373.539816 41.216327 
L 378.615384 38.997551 
L 383.704344 36.778776 
L 388.8 34.56 
" style="fill:none;stroke:#000000;stroke-linecap:square;"/>
   </g>
   <g id="line2d_36">
    <path clip-path="url(#p5b26229dfa)" d="M 388.8 252 
L 384.822576 249.781224 
L 380.845152 247.562449 
L 376.877772 245.343673 
L 372.923784 243.124898 
L 368.986536 240.906122 
L 365.069376 238.687347 
L 361.175652 236.468571 
L 357.308712 234.249796 
L 353.4786 232.03102 
L 349.681968 229.812245 
L 345.925512 227.593469 
L 342.21258 225.374694 
L 338.549868 223.155918 
L 334.937376 220.937143 
L 331.378452 218.718367 
L 327.879792 216.499592 
L 324.444744 214.280816 
L 321.076656 212.062041 
L 317.775528 209.843265 
L 314.548056 207.62449 
L 311.397588 205.405714 
L 308.327472 203.186939 
L 305.341056 200.968163 
L 302.43834 198.749388 
L 299.622672 196.530612 
L 296.900748 194.311837 
L 294.272568 192.093061 
L 291.744828 189.874286 
L 289.31418 187.65551 
L 286.983972 185.436735 
L 284.7609 183.217959 
L 282.644964 180.999184 
L 280.636164 178.780408 
L 278.737848 176.561633 
L 276.956712 174.342857 
L 275.28606 172.124082 
L 273.735936 169.905306 
L 272.299644 167.686531 
L 270.987228 165.467755 
L 269.79534 163.24898 
L 268.72398 161.030204 
L 267.776496 158.811429 
L 266.952888 156.592653 
L 266.253156 154.373878 
L 265.683996 152.155102 
L 265.238712 149.936327 
L 264.917304 147.717551 
L 264.726468 145.498776 
L 264.662856 143.28 
L 264.726468 141.061224 
L 264.917304 138.842449 
L 265.238712 136.623673 
L 265.683996 134.404898 
L 266.253156 132.186122 
L 266.952888 129.967347 
L 267.776496 127.748571 
L 268.72398 125.529796 
L 269.79534 123.31102 
L 270.987228 121.092245 
L 272.299644 118.873469 
L 273.735936 116.654694 
L 275.28606 114.435918 
L 276.956712 112.217143 
L 278.737848 109.998367 
L 280.636164 107.779592 
L 282.644964 105.560816 
L 284.7609 103.342041 
L 286.983972 101.123265 
L 289.31418 98.90449 
L 291.744828 96.685714 
L 294.272568 94.466939 
L 296.900748 92.248163 
L 299.622672 90.029388 
L 302.43834 87.810612 
L 305.341056 85.591837 
L 308.327472 83.373061 
L 311.397588 81.154286 
L 314.548056 78.93551 
L 317.775528 76.716735 
L 321.076656 74.497959 
L 324.444744 72.279184 
L 327.879792 70.060408 
L 331.378452 67.841633 
L 334.937376 65.622857 
L 338.549868 63.404082 
L 342.21258 61.185306 
L 345.925512 58.966531 
L 349.681968 56.747755 
L 353.4786 54.52898 
L 357.308712 52.310204 
L 361.175652 50.091429 
L 365.069376 47.872653 
L 368.986536 45.653878 
L 372.923784 43.435102 
L 376.877772 41.216327 
L 380.845152 38.997551 
L 384.822576 36.778776 
L 388.8 34.56 
" style="fill:none;stroke:#000000;stroke-linecap:square;"/>
   </g>
   <g id="line2d_37">
    <path clip-path="url(#p5b26229dfa)" d="M 388.8 252 
L 385.689708 249.781224 
L 382.586112 247.562449 
L 379.485864 245.343673 
L 376.39566 243.124898 
L 373.318848 240.906122 
L 370.258776 238.687347 
L 367.215444 236.468571 
L 364.195548 234.249796 
L 361.202436 232.03102 
L 358.236108 229.812245 
L 355.299912 227.593469 
L 352.400544 225.374694 
L 349.538004 223.155918 
L 346.71564 220.937143 
L 343.9368 218.718367 
L 341.201484 216.499592 
L 338.519736 214.280816 
L 335.88486 212.062041 
L 333.3069 209.843265 
L 330.785856 207.62449 
L 328.325076 205.405714 
L 325.92456 203.186939 
L 323.591004 200.968163 
L 321.32106 198.749388 
L 319.124772 196.530612 
L 316.995444 194.311837 
L 314.94312 192.093061 
L 312.9678 189.874286 
L 311.066136 187.65551 
L 309.248172 185.436735 
L 307.51056 183.217959 
L 305.856648 180.999184 
L 304.286436 178.780408 
L 302.803272 176.561633 
L 301.410504 174.342857 
L 300.108132 172.124082 
L 298.892808 169.905306 
L 297.774576 167.686531 
L 296.74674 165.467755 
L 295.815996 163.24898 
L 294.978996 161.030204 
L 294.23574 158.811429 
L 293.592924 156.592653 
L 293.0472 154.373878 
L 292.601916 152.155102 
L 292.253724 149.936327 
L 292.005972 147.717551 
L 291.855312 145.498776 
L 291.805092 143.28 
L 291.855312 141.061224 
L 292.005972 138.842449 
L 292.253724 136.623673 
L 292.601916 134.404898 
L 293.0472 132.186122 
L 293.592924 129.967347 
L 294.23574 127.748571 
L 294.978996 125.529796 
L 295.815996 123.31102 
L 296.74674 121.092245 
L 297.774576 118.873469 
L 298.892808 116.654694 
L 300.108132 114.435918 
L 301.410504 112.217143 
L 302.803272 109.998367 
L 304.286436 107.779592 
L 305.856648 105.560816 
L 307.51056 103.342041 
L 309.248172 101.123265 
L 311.066136 98.90449 
L 312.9678 96.685714 
L 314.94312 94.466939 
L 316.995444 92.248163 
L 319.124772 90.029388 
L 321.32106 87.810612 
L 323.591004 85.591837 
L 325.92456 83.373061 
L 328.325076 81.154286 
L 330.785856 78.93551 
L 333.3069 76.716735 
L 335.88486 74.497959 
L 338.519736 72.279184 
L 341.201484 70.060408 
L 343.9368 67.841633 
L 346.71564 65.622857 
L 349.538004 63.404082 
L 352.400544 61.185306 
L 355.299912 58.966531 
L 358.236108 56.747755 
L 361.202436 54.52898 
L 364.195548 52.310204 
L 367.215444 50.091429 
L 370.258776 47.872653 
L 373.318848 45.653878 
L 376.39566 43.435102 
L 379.485864 41.216327 
L 382.586112 38.997551 
L 385.689708 36.778776 
L 388.8 34.56 
" style="fill:none;stroke:#000000;stroke-linecap:square;"/>
   </g>
   <g id="line2d_38">
    <path clip-path="url(#p5b26229dfa)" d="M 388.8 252 
L 386.369352 249.781224 
L 383.9454 247.562449 
L 381.521448 245.343673 
L 379.10754 243.124898 
L 376.703676 240.906122 
L 374.313204 238.687347 
L 371.936124 236.468571 
L 369.575784 234.249796 
L 367.235532 232.03102 
L 364.918716 229.812245 
L 362.625336 227.593469 
L 360.35874 225.374694 
L 358.122276 223.155918 
L 355.915944 220.937143 
L 353.74644 218.718367 
L 351.610416 216.499592 
L 349.514568 214.280816 
L 347.455548 212.062041 
L 345.440052 209.843265 
L 343.471428 207.62449 
L 341.549676 205.405714 
L 339.674796 203.186939 
L 337.850136 200.968163 
L 336.075696 198.749388 
L 334.358172 196.530612 
L 332.697564 194.311837 
L 331.093872 192.093061 
L 329.547096 189.874286 
L 328.063932 187.65551 
L 326.641032 185.436735 
L 325.285092 183.217959 
L 323.992764 180.999184 
L 322.767396 178.780408 
L 321.608988 176.561633 
L 320.51754 174.342857 
L 319.499748 172.124082 
L 318.552264 169.905306 
L 317.678436 167.686531 
L 316.874916 165.467755 
L 316.145052 163.24898 
L 315.492192 161.030204 
L 314.912988 158.811429 
L 314.410788 156.592653 
L 313.985592 154.373878 
L 313.6374 152.155102 
L 313.362864 149.936327 
L 313.16868 147.717551 
L 313.0515 145.498776 
L 313.014672 143.28 
L 313.0515 141.061224 
L 313.16868 138.842449 
L 313.362864 136.623673 
L 313.6374 134.404898 
L 313.985592 132.186122 
L 314.410788 129.967347 
L 314.912988 127.748571 
L 315.492192 125.529796 
L 316.145052 123.31102 
L 316.874916 121.092245 
L 317.678436 118.873469 
L 318.552264 116.654694 
L 319.499748 114.435918 
L 320.51754 112.217143 
L 321.608988 109.998367 
L 322.767396 107.779592 
L 323.992764 105.560816 
L 325.285092 103.342041 
L 326.641032 101.123265 
L 328.063932 98.90449 
L 329.547096 96.685714 
L 331.093872 94.466939 
L 332.697564 92.248163 
L 334.358172 90.029388 
L 336.075696 87.810612 
L 337.850136 85.591837 
L 339.674796 83.373061 
L 341.549676 81.154286 
L 343.471428 78.93551 
L 345.440052 76.716735 
L 347.455548 74.497959 
L 349.514568 72.279184 
L 351.610416 70.060408 
L 353.74644 67.841633 
L 355.915944 65.622857 
L 358.122276 63.404082 
L 360.35874 61.185306 
L 362.625336 58.966531 
L 364.918716 56.747755 
L 367.235532 54.52898 
L 369.575784 52.310204 
L 371.936124 50.091429 
L 374.313204 47.872653 
L 376.703676 45.653878 
L 379.10754 43.435102 
L 381.521448 41.216327 
L 383.9454 38.997551 
L 386.369352 36.778776 
L 388.8 34.56 
" style="fill:none;stroke:#000000;stroke-linecap:square;"/>
   </g>
   <g id="line2d_39">
    <path clip-path="url(#p5b26229dfa)" d="M 388.8 252 
L 386.901684 249.781224 
L 385.006716 247.562449 
L 383.115096 245.343673 
L 381.226824 243.124898 
L 379.348596 240.906122 
L 377.480412 238.687347 
L 375.622272 236.468571 
L 373.780872 234.249796 
L 371.952864 232.03102 
L 370.141596 229.812245 
L 368.350416 227.593469 
L 366.579324 225.374694 
L 364.831668 223.155918 
L 363.107448 220.937143 
L 361.410012 218.718367 
L 359.742708 216.499592 
L 358.102188 214.280816 
L 356.495148 212.062041 
L 354.921588 209.843265 
L 353.381508 207.62449 
L 351.881604 205.405714 
L 350.41518 203.186939 
L 348.988932 200.968163 
L 347.606208 198.749388 
L 346.26366 196.530612 
L 344.964636 194.311837 
L 343.712484 192.093061 
L 342.503856 189.874286 
L 341.345448 187.65551 
L 340.233912 185.436735 
L 339.172596 183.217959 
L 338.1615 180.999184 
L 337.203972 178.780408 
L 336.300012 176.561633 
L 335.44962 174.342857 
L 334.652796 172.124082 
L 333.912888 169.905306 
L 333.229896 167.686531 
L 332.600472 165.467755 
L 332.031312 163.24898 
L 331.522416 161.030204 
L 331.070436 158.811429 
L 330.675372 156.592653 
L 330.34392 154.373878 
L 330.069384 152.155102 
L 329.85846 149.936327 
L 329.7078 147.717551 
L 329.614056 145.498776 
L 329.583924 143.28 
L 329.614056 141.061224 
L 329.7078 138.842449 
L 329.85846 136.623673 
L 330.069384 134.404898 
L 330.34392 132.186122 
L 330.675372 129.967347 
L 331.070436 127.748571 
L 331.522416 125.529796 
L 332.031312 123.31102 
L 332.600472 121.092245 
L 333.229896 118.873469 
L 333.912888 116.654694 
L 334.652796 114.435918 
L 335.44962 112.217143 
L 336.300012 109.998367 
L 337.203972 107.779592 
L 338.1615 105.560816 
L 339.172596 103.342041 
L 340.233912 101.123265 
L 341.345448 98.90449 
L 342.503856 96.685714 
L 343.712484 94.466939 
L 344.964636 92.248163 
L 346.26366 90.029388 
L 347.606208 87.810612 
L 348.988932 85.591837 
L 350.41518 83.373061 
L 351.881604 81.154286 
L 353.381508 78.93551 
L 354.921588 76.716735 
L 356.495148 74.497959 
L 358.102188 72.279184 
L 359.742708 70.060408 
L 361.410012 67.841633 
L 363.107448 65.622857 
L 364.831668 63.404082 
L 366.579324 61.185306 
L 368.350416 58.966531 
L 370.141596 56.747755 
L 371.952864 54.52898 
L 373.780872 52.310204 
L 375.622272 50.091429 
L 377.480412 47.872653 
L 379.348596 45.653878 
L 381.226824 43.435102 
L 383.115096 41.216327 
L 385.006716 38.997551 
L 386.901684 36.778776 
L 388.8 34.56 
" style="fill:none;stroke:#000000;stroke-linecap:square;"/>
   </g>
   <g id="line2d_40">
    <path clip-path="url(#p5b26229dfa)" d="M 388.8 252 
L 387.316836 249.781224 
L 385.83702 247.562449 
L 384.357204 245.343673 
L 382.884084 243.124898 
L 381.414312 240.906122 
L 379.954584 238.687347 
L 378.5049 236.468571 
L 377.06526 234.249796 
L 375.635664 232.03102 
L 374.21946 229.812245 
L 372.819996 227.593469 
L 371.437272 225.374694 
L 370.071288 223.155918 
L 368.725392 220.937143 
L 367.399584 218.718367 
L 366.097212 216.499592 
L 364.814928 214.280816 
L 363.559428 212.062041 
L 362.330712 209.843265 
L 361.125432 207.62449 
L 359.953632 205.405714 
L 358.808616 203.186939 
L 357.693732 200.968163 
L 356.612328 198.749388 
L 355.564404 196.530612 
L 354.54996 194.311837 
L 353.568996 192.093061 
L 352.628208 189.874286 
L 351.7209 187.65551 
L 350.853768 185.436735 
L 350.023464 183.217959 
L 349.233336 180.999184 
L 348.486732 178.780408 
L 347.780304 176.561633 
L 347.114052 174.342857 
L 346.491324 172.124082 
L 345.915468 169.905306 
L 345.379788 167.686531 
L 344.89098 165.467755 
L 344.445696 163.24898 
L 344.047284 161.030204 
L 343.692396 158.811429 
L 343.38438 156.592653 
L 343.126584 154.373878 
L 342.912312 152.155102 
L 342.744912 149.936327 
L 342.627732 147.717551 
L 342.557424 145.498776 
L 342.533988 143.28 
L 342.557424 141.061224 
L 342.627732 138.842449 
L 342.744912 136.623673 
L 342.912312 134.404898 
L 343.126584 132.186122 
L 343.38438 129.967347 
L 343.692396 127.748571 
L 344.047284 125.529796 
L 344.445696 123.31102 
L 344.89098 121.092245 
L 345.379788 118.873469 
L 345.915468 116.654694 
L 346.491324 114.435918 
L 347.114052 112.217143 
L 347.780304 109.998367 
L 348.486732 107.779592 
L 349.233336 105.560816 
L 350.023464 103.342041 
L 350.853768 101.123265 
L 351.7209 98.90449 
L 352.628208 96.685714 
L 353.568996 94.466939 
L 354.54996 92.248163 
L 355.564404 90.029388 
L 356.612328 87.810612 
L 357.693732 85.591837 
L 358.808616 83.373061 
L 359.953632 81.154286 
L 361.125432 78.93551 
L 362.330712 76.716735 
L 363.559428 74.497959 
L 364.814928 72.279184 
L 366.097212 70.060408 
L 367.399584 67.841633 
L 368.725392 65.622857 
L 370.071288 63.404082 
L 371.437272 61.185306 
L 372.819996 58.966531 
L 374.21946 56.747755 
L 375.635664 54.52898 
L 377.06526 52.310204 
L 378.5049 50.091429 
L 379.954584 47.872653 
L 381.414312 45.653878 
L 382.884084 43.435102 
L 384.357204 41.216327 
L 385.83702 38.997551 
L 387.316836 36.778776 
L 388.8 34.56 
" style="fill:none;stroke:#000000;stroke-linecap:square;"/>
   </g>
   <g id="line2d_41">
    <path clip-path="url(#p5b26229dfa)" d="M 388.8 252 
L 387.641592 249.781224 
L 386.483184 247.562449 
L 385.328124 245.343673 
L 384.176412 243.124898 
L 383.031396 240.906122 
L 381.889728 238.687347 
L 380.754756 236.468571 
L 379.629828 234.249796 
L 378.514944 232.03102 
L 377.410104 229.812245 
L 376.315308 227.593469 
L 375.233904 225.374694 
L 374.165892 223.155918 
L 373.11462 220.937143 
L 372.080088 218.718367 
L 371.058948 216.499592 
L 370.061244 214.280816 
L 369.076932 212.062041 
L 368.116056 209.843265 
L 367.178616 207.62449 
L 366.261264 205.405714 
L 365.367348 203.186939 
L 364.496868 200.968163 
L 363.649824 198.749388 
L 362.829564 196.530612 
L 362.039436 194.311837 
L 361.272744 192.093061 
L 360.536184 189.874286 
L 359.829756 187.65551 
L 359.150112 185.436735 
L 358.503948 183.217959 
L 357.884568 180.999184 
L 357.302016 178.780408 
L 356.749596 176.561633 
L 356.230656 174.342857 
L 355.741848 172.124082 
L 355.289868 169.905306 
L 354.874716 167.686531 
L 354.489696 165.467755 
L 354.144852 163.24898 
L 353.83014 161.030204 
L 353.555604 158.811429 
L 353.314548 156.592653 
L 353.113668 154.373878 
L 352.946268 152.155102 
L 352.815696 149.936327 
L 352.721952 147.717551 
L 352.668384 145.498776 
L 352.648296 143.28 
L 352.668384 141.061224 
L 352.721952 138.842449 
L 352.815696 136.623673 
L 352.946268 134.404898 
L 353.113668 132.186122 
L 353.314548 129.967347 
L 353.555604 127.748571 
L 353.83014 125.529796 
L 354.144852 123.31102 
L 354.489696 121.092245 
L 354.874716 118.873469 
L 355.289868 116.654694 
L 355.741848 114.435918 
L 356.230656 112.217143 
L 356.749596 109.998367 
L 357.302016 107.779592 
L 357.884568 105.560816 
L 358.503948 103.342041 
L 359.150112 101.123265 
L 359.829756 98.90449 
L 360.536184 96.685714 
L 361.272744 94.466939 
L 362.039436 92.248163 
L 362.829564 90.029388 
L 363.649824 87.810612 
L 364.496868 85.591837 
L 365.367348 83.373061 
L 366.261264 81.154286 
L 367.178616 78.93551 
L 368.116056 76.716735 
L 369.076932 74.497959 
L 370.061244 72.279184 
L 371.058948 70.060408 
L 372.080088 67.841633 
L 373.11462 65.622857 
L 374.165892 63.404082 
L 375.233904 61.185306 
L 376.315308 58.966531 
L 377.410104 56.747755 
L 378.514944 54.52898 
L 379.629828 52.310204 
L 380.754756 50.091429 
L 381.889728 47.872653 
L 383.031396 45.653878 
L 384.176412 43.435102 
L 385.328124 41.216327 
L 386.483184 38.997551 
L 387.641592 36.778776 
L 388.8 34.56 
" style="fill:none;stroke:#000000;stroke-linecap:square;"/>
   </g>
   <g id="line2d_42">
    <path clip-path="url(#p5b26229dfa)" d="M 388.8 252 
L 387.89604 249.781224 
L 386.988732 247.562449 
L 386.08812 245.343673 
L 385.187508 243.124898 
L 384.293592 240.906122 
L 383.399676 238.687347 
L 382.515804 236.468571 
L 381.63528 234.249796 
L 380.7648 232.03102 
L 379.901016 229.812245 
L 379.043928 227.593469 
L 378.200232 225.374694 
L 377.36658 223.155918 
L 376.542972 220.937143 
L 375.736104 218.718367 
L 374.93928 216.499592 
L 374.155848 214.280816 
L 373.389156 212.062041 
L 372.639204 209.843265 
L 371.905992 207.62449 
L 371.18952 205.405714 
L 370.489788 203.186939 
L 369.810144 200.968163 
L 369.150588 198.749388 
L 368.507772 196.530612 
L 367.888392 194.311837 
L 367.292448 192.093061 
L 366.716592 189.874286 
L 366.164172 187.65551 
L 365.63184 185.436735 
L 365.126292 183.217959 
L 364.64418 180.999184 
L 364.188852 178.780408 
L 363.75696 176.561633 
L 363.351852 174.342857 
L 362.97018 172.124082 
L 362.61864 169.905306 
L 362.290536 167.686531 
L 361.992564 165.467755 
L 361.721376 163.24898 
L 361.476972 161.030204 
L 361.2627 158.811429 
L 361.075212 156.592653 
L 360.914508 154.373878 
L 360.787284 152.155102 
L 360.683496 149.936327 
L 360.613188 147.717551 
L 360.569664 145.498776 
L 360.552924 143.28 
L 360.569664 141.061224 
L 360.613188 138.842449 
L 360.683496 136.623673 
L 360.787284 134.404898 
L 360.914508 132.186122 
L 361.075212 129.967347 
L 361.2627 127.748571 
L 361.476972 125.529796 
L 361.721376 123.31102 
L 361.992564 121.092245 
L 362.290536 118.873469 
L 362.61864 116.654694 
L 362.97018 114.435918 
L 363.351852 112.217143 
L 363.75696 109.998367 
L 364.188852 107.779592 
L 364.64418 105.560816 
L 365.126292 103.342041 
L 365.63184 101.123265 
L 366.164172 98.90449 
L 366.716592 96.685714 
L 367.292448 94.466939 
L 367.888392 92.248163 
L 368.507772 90.029388 
L 369.150588 87.810612 
L 369.810144 85.591837 
L 370.489788 83.373061 
L 371.18952 81.154286 
L 371.905992 78.93551 
L 372.639204 76.716735 
L 373.389156 74.497959 
L 374.155848 72.279184 
L 374.93928 70.060408 
L 375.736104 67.841633 
L 376.542972 65.622857 
L 377.36658 63.404082 
L 378.200232 61.185306 
L 379.043928 58.966531 
L 379.901016 56.747755 
L 380.7648 54.52898 
L 381.63528 52.310204 
L 382.515804 50.091429 
L 383.399676 47.872653 
L 384.293592 45.653878 
L 385.187508 43.435102 
L 386.08812 41.216327 
L 386.988732 38.997551 
L 387.89604 36.778776 
L 388.8 34.56 
" style="fill:none;stroke:#000000;stroke-linecap:square;"/>
   </g>
   <g id="patch_3">
    <path d="M 54 252 
L 54 34.56 
" style="fill:none;stroke:#000000;stroke-linecap:square;stroke-linejoin:miter;stroke-width:0.8;"/>
   </g>
   <g id="patch_4">
    <path d="M 388.8 252 
L 388.8 34.56 
" style="fill:none;stroke:#000000;stroke-linecap:square;stroke-linejoin:miter;stroke-width:0.8;"/>
   </g>
   <g id="patch_5">
    <path d="M 54 252 
L 388.8 252 
" style="fill:none;stroke:#000000;stroke-linecap:square;stroke-linejoin:miter;stroke-width:0.8;"/>
   </g>
   <g id="patch_6">
    <path d="M 54 34.56 
L 388.8 34.56 
" style="fill:none;stroke:#000000;stroke-linecap:square;stroke-linejoin:miter;stroke-width:0.8;"/>
   </g>
   <g id="text_18">
    <!-- Isocronas -->
    <defs>
     <path d="M 9.8125 72.90625 
L 19.671875 72.90625 
L 19.671875 0 
L 9.8125 0 
z
" id="DejaVuSans-73"/>
    </defs>
    <g transform="translate(192.92625 28.56)scale(0.12 -0.12)">
     <use xlink:href="#DejaVuSans-73"/>
     <use x="29.492188" xlink:href="#DejaVuSans-115"/>
     <use x="81.591797" xlink:href="#DejaVuSans-111"/>
     <use x="142.773438" xlink:href="#DejaVuSans-99"/>
     <use x="197.753906" xlink:href="#DejaVuSans-114"/>
     <use x="236.617188" xlink:href="#DejaVuSans-111"/>
     <use x="297.798828" xlink:href="#DejaVuSans-110"/>
     <use x="361.177734" xlink:href="#DejaVuSans-97"/>
     <use x="422.457031" xlink:href="#DejaVuSans-115"/>
    </g>
   </g>
  </g>
 </g>
 <defs>
  <clipPath id="p5b26229dfa">
   <rect height="217.44" width="334.8" x="54" y="34.56"/>
  </clipPath>
 </defs>
</svg>
